<svg width="512" height="512" viewBox="0 0 512 512" fill="none" xmlns="http://www.w3.org/2000/svg">
  <circle cx="256" cy="256" r="220" fill="none" stroke="#7A0050" stroke-width="18" />
  <path d="M122 324c68.5-62.5 136-73 163-152 2-6-3.5-11-9.5-9.5C206 173 147 204 122 260c-7 16.5-6 42.5 0 64Z" fill="#7A0050"/>
  <path d="M390 324c-68.5-62.5-136-73-163-152-2-6 3.5-11 9.5-9.5C306 173 365 204 390 260c7 16.5 6 42.5 0 64Z" fill="#7A0050" opacity="0.85"/>
  <path d="M226 260c32-14 66-16 106-11" stroke="#7A0050" stroke-width="20" stroke-linecap="round"/>
</svg>
